<svg id="Component_16_1" data-name="Component 16 – 1" xmlns="http://www.w3.org/2000/svg" width="222.314" height="79.981" viewBox="0 0 222.314 79.981">
  <g id="Group_6" data-name="Group 6" transform="translate(1.154)">
    <g id="Group_5" data-name="Group 5" transform="translate(0)">
      <path id="Path_12" data-name="Path 12" d="M499.247,614.239,486.5,585.579a.42.42,0,0,0-.4-.26h-8.547a.438.438,0,0,0-.4.617l18.506,41.325a.421.421,0,0,0,.4.259h7.275a.421.421,0,0,0,.4-.257l18.735-41.325a.437.437,0,0,0-.4-.618h-8.553a.419.419,0,0,0-.4.258L500.178,614.24a.51.51,0,0,1-.931,0Z" transform="translate(-389.31 -570.906)" fill="#fff" fill-rule="evenodd"/>
      <path id="Path_13" data-name="Path 13" d="M385.157,583.742a21.784,21.784,0,0,0,2.7,43.4,21.784,21.784,0,1,0-2.7-43.4Zm5.037,8.684h0a13.143,13.143,0,0,1-.171,25.894,13.215,13.215,0,0,1-4.336,0l-.183-.031a13.143,13.143,0,0,1,.182-25.892,13.217,13.217,0,0,1,4.337,0Z" transform="translate(-321.837 -569.847)" fill="#fff" fill-rule="evenodd"/>
      <path id="Path_14" data-name="Path 14" d="M273.491,594.189a9.5,9.5,0,0,1,7.387,9.223V627.08a.44.44,0,0,0,.438.438h7.768a.44.44,0,0,0,.438-.438V603.413a18.1,18.1,0,1,0-36.191,0V627.08a.44.44,0,0,0,.438.438h7.767a.44.44,0,0,0,.438-.438V603.412a9.495,9.495,0,0,1,7.387-9.222,9.41,9.41,0,0,1,4.13,0Z" transform="translate(-253.331 -570.905)" fill="#fff" fill-rule="evenodd"/>
      <path id="Path_15" data-name="Path 15" d="M606.664,563a.439.439,0,0,0-.438.438v41.325a.44.44,0,0,0,.438.438h7.767a.44.44,0,0,0,.438-.438V563.436a.439.439,0,0,0-.438-.437Zm3.884-14.412h0a5.147,5.147,0,1,0,5.147,5.148A5.147,5.147,0,0,0,610.548,548.586Z" transform="translate(-467.264 -548.586)" fill="#fff" fill-rule="evenodd"/>
      <path id="Path_16" data-name="Path 16" d="M792.025,563a.439.439,0,0,0-.437.438v41.325a.439.439,0,0,0,.438.438h7.768a.439.439,0,0,0,.438-.438V563.436a.439.439,0,0,0-.438-.437Zm3.884-14.412h0a5.147,5.147,0,1,0,5.147,5.148A5.147,5.147,0,0,0,795.909,548.586Z" transform="translate(-579.897 -548.586)" fill="#fff" fill-rule="evenodd"/>
      <g id="Group_4" data-name="Group 4" transform="translate(152.112 14.275)">
        <path id="Path_17" data-name="Path 17" d="M673.969,702.566a13,13,0,0,1-2.146,4.206,11.226,11.226,0,0,1-3.617,3.029,12.137,12.137,0,0,1-10.433,0,11.209,11.209,0,0,1-3.617-3.029,12.932,12.932,0,0,1-2.145-4.206,16.123,16.123,0,0,1-.7-4.509h-10.27a21.54,21.54,0,0,0,1.716,8.546,20.657,20.657,0,0,0,4.668,6.773,21.3,21.3,0,0,0,6.984,4.418,23.832,23.832,0,0,0,17.162,0,21.3,21.3,0,0,0,6.984-4.418,20.706,20.706,0,0,0,4.669-6.773,21.586,21.586,0,0,0,1.715-8.546h-10.27A16.212,16.212,0,0,1,673.969,702.566Z" transform="translate(-641.032 -653.686)" fill="#fff" fill-rule="evenodd"/>
        <path id="Path_18" data-name="Path 18" d="M689.764,586.277c-15.093-.184-16.027,13.918-15.4,16.836h-.042a15.615,15.615,0,0,1,.343,3.056,16.191,16.191,0,0,1-.714,4.712,13,13,0,0,1-2.146,4.206,11.222,11.222,0,0,1-3.618,3.029,12.137,12.137,0,0,1-10.433,0,11.2,11.2,0,0,1-3.617-3.029A12.932,12.932,0,0,1,652,610.881a16.127,16.127,0,0,1-.715-4.712A15.735,15.735,0,0,1,652,601.5a13.055,13.055,0,0,1,2.145-4.164,10.8,10.8,0,0,1,3.617-2.987,12.563,12.563,0,0,1,10.433,0,10.881,10.881,0,0,1,2.942,2.291c.033-.144.044-.3.079-.44a15.741,15.741,0,0,1,2.693-5.846,12.353,12.353,0,0,1,1.722-1.831,21.51,21.51,0,0,0-4.071-2.039,25.066,25.066,0,0,0-17.162,0,20.572,20.572,0,0,0-6.984,4.29,20.344,20.344,0,0,0-4.668,6.688,21.337,21.337,0,0,0-1.725,8.708,21.622,21.622,0,0,0,1.725,8.749,20.665,20.665,0,0,0,4.668,6.773,21.3,21.3,0,0,0,6.984,4.418,23.83,23.83,0,0,0,17.162,0,21.306,21.306,0,0,0,6.984-4.418,20.713,20.713,0,0,0,4.669-6.773,21.655,21.655,0,0,0,1.725-8.749c0-.552-.04-1.082-.075-1.616l.06.009V604a19.991,19.991,0,0,1,.252-3.113,9.349,9.349,0,0,1,.968-2.945,5.717,5.717,0,0,1,2.061-2.187,6.487,6.487,0,0,1,3.275-.813h4.8v-8.671Z" transform="translate(-641.018 -584.969)" fill="#fff" fill-rule="evenodd"/>
      </g>
    </g>
  </g>
  <text id="Inspiring_Tomorrow" data-name="Inspiring Tomorrow" transform="translate(0 75.276)" fill="#fff" font-size="17" font-family="TrebuchetMS, Trebuchet MS"><tspan x="0" y="0">Inspiring Tomorrow</tspan></text>
</svg>
