<svg xmlns="http://www.w3.org/2000/svg" width="18" height="18" viewBox="0 0 18 18">
  <path id="Path_249" data-name="Path 249" d="M359.891,49.449h-.7V46.813A2.816,2.816,0,0,0,356.375,44h-6.75a2.816,2.816,0,0,0-2.812,2.813v2.637h-.7A2.112,2.112,0,0,0,344,51.559v4.113a2.112,2.112,0,0,0,2.109,2.109H352.3v2.813h-3.516V62h8.438V60.594H353.7V57.781h6.188A2.112,2.112,0,0,0,362,55.672V51.559a2.112,2.112,0,0,0-2.109-2.109Zm-2.109,6.926h-9.562V55.6a.7.7,0,0,1,.7-.7h8.156a.7.7,0,0,1,.7.7Zm-8.156-10.969h6.75a1.408,1.408,0,0,1,1.406,1.406v6.8a2.1,2.1,0,0,0-.7-.121h-8.156a2.1,2.1,0,0,0-.7.121v-6.8a1.408,1.408,0,0,1,1.406-1.406Zm-4.219,10.266V51.559a.7.7,0,0,1,.7-.7h.7v5.52h-.7a.7.7,0,0,1-.7-.7Zm15.188,0a.7.7,0,0,1-.7.7h-.7v-5.52h.7a.7.7,0,0,1,.7.7Zm0,0" transform="translate(-344 -44)" fill="#ff0100"/>
</svg>
