<svg xmlns="http://www.w3.org/2000/svg" width="18.5" height="14.762" viewBox="0 0 18.5 14.762">
  <path id="Path_250" data-name="Path 250" d="M16.076,55.725H12.132v-2a.566.566,0,0,0-.566-.566H6.435a.566.566,0,0,0-.566.566v2H1.924A1.927,1.927,0,0,0,0,57.65V65.5a1.927,1.927,0,0,0,1.924,1.924H16.076A1.927,1.927,0,0,0,18,65.5V57.65A1.927,1.927,0,0,0,16.076,55.725Zm-2.339,1.132v9.436H4.263V56.858ZM7,54.3h4v1.429H7ZM1.132,65.5V57.65a.793.793,0,0,1,.792-.792H3.131v9.436H1.924A.793.793,0,0,1,1.132,65.5Zm15.735,0a.793.793,0,0,1-.792.792H14.869V56.858h1.206a.793.793,0,0,1,.792.792Z" transform="translate(0.25 -52.914)" fill="#ff0100" stroke="#ff0100" stroke-width="0.5"/>
</svg>
