<svg xmlns="http://www.w3.org/2000/svg" width="18" height="16.138" viewBox="0 0 18 16.138">
  <path id="Path_243" data-name="Path 243" d="M595.448,285.828H593.9V284.9a5.9,5.9,0,0,0-11.793,0v.931h-1.552A1.553,1.553,0,0,0,579,287.379v3.259a1.4,1.4,0,0,0,1.4,1.4H582.1v.31a2.8,2.8,0,0,0,2.793,2.793h4.345a.931.931,0,0,0,0-1.862H584.9a.932.932,0,0,1-.931-.931V284.9a4.034,4.034,0,1,1,8.069,0V291.1a.931.931,0,0,0,.931.931H595.6a1.4,1.4,0,0,0,1.4-1.4v-3.259a1.553,1.553,0,0,0-1.552-1.552Zm-14.586,1.862H582.1v2.483h-1.241Zm14.276,2.483H593.9V287.69h1.241Zm0,0" transform="translate(-579 -279)" fill="#ff0100"/>
</svg>
