<svg xmlns="http://www.w3.org/2000/svg" width="20.1" height="20.1" viewBox="0 0 20.1 20.1">
  <g id="Group_208" data-name="Group 208" transform="translate(-407.95 -107.95)">
    <path id="Path_244" data-name="Path 244" d="M418,108a10,10,0,1,0,10,10,10.011,10.011,0,0,0-10-10Zm0,19.219A9.219,9.219,0,1,1,427.219,118,9.229,9.229,0,0,1,418,127.219Zm0,0" fill="#ff0100" stroke="#ff0100" stroke-width="0.1"/>
    <path id="Path_245" data-name="Path 245" d="M457.813,150a7.778,7.778,0,0,0-6.109,2.942.391.391,0,0,0,.611.487,7.031,7.031,0,1,1-1.533,4.383,7.089,7.089,0,0,1,.137-1.386.391.391,0,0,0-.766-.153A7.813,7.813,0,1,0,457.813,150Zm0,0" transform="translate(-39.813 -39.813)" fill="#ff0100" stroke="#ff0100" stroke-width="0.1"/>
    <path id="Path_246" data-name="Path 246" d="M515.032,205.383a.391.391,0,0,0-.391.391v2.734a1.951,1.951,0,0,0,.781,1.561v4.388a1.172,1.172,0,1,0,2.344,0v-4.388a1.951,1.951,0,0,0,.781-1.561v-2.734a.391.391,0,1,0-.781,0v1.953h-.781v-1.953a.391.391,0,1,0-.781,0v1.953h-.781v-1.953a.391.391,0,0,0-.391-.391Zm1.953,9.075a.391.391,0,1,1-.781,0v-4.036a1.962,1.962,0,0,0,.781,0Zm-.391-4.778a1.173,1.173,0,0,1-1.172-1.172h2.344a1.173,1.173,0,0,1-1.172,1.172Zm0,0" transform="translate(-101.087 -92.311)" fill="#ff0100" stroke="#ff0100" stroke-width="0.1"/>
    <path id="Path_247" data-name="Path 247" d="M608.1,208.52a1.173,1.173,0,0,0,1.172-1.172v-4.681a1.963,1.963,0,0,0,.977-1.762,3.889,3.889,0,0,0-.572-1.923,1.681,1.681,0,0,0-3.154,0,3.886,3.886,0,0,0-.572,1.923,1.962,1.962,0,0,0,.977,1.762v4.681a1.173,1.173,0,0,0,1.172,1.172Zm.391-1.172a.391.391,0,0,1-.781,0v-4.416a2.673,2.673,0,0,0,.781,0Zm-.391-8.684c.3,0,.629.264.909.723a3.121,3.121,0,0,1,.458,1.517,1.371,1.371,0,0,1-2.734,0c0-.937.689-2.241,1.367-2.241Zm0,0" transform="translate(-187.643 -85.202)" fill="#ff0100" stroke="#ff0100" stroke-width="0.1"/>
    <path id="Path_248" data-name="Path 248" d="M463.664,233.133h0a.391.391,0,1,0-.391-.391.391.391,0,0,0,.391.391Zm0,0" transform="translate(-52.394 -117.875)" fill="#ff0100" stroke="#ff0100" stroke-width="0.1"/>
  </g>
</svg>
