<svg width="26" height="27" viewBox="0 0 26 27" fill="none" xmlns="http://www.w3.org/2000/svg">
<g clip-path="url(#clip0)">
<path d="M16.5743 7.32961C16.472 7.44197 16.1292 7.81826 16.0452 7.92977L14.1485 10.1248C14.139 10.1366 14.1264 10.1455 14.1122 10.1507C14.0979 10.1558 14.0826 10.157 14.0677 10.154L6.33356 8.9862C6.21566 8.96612 6.09461 8.97585 5.98143 9.01451C5.86825 9.05316 5.76653 9.11952 5.68555 9.20753L4.97172 9.99114C4.80337 10.176 4.93094 10.4072 5.16239 10.4976L11.3809 13.1377C11.3945 13.1424 11.4067 13.1505 11.4163 13.1611C11.426 13.1717 11.433 13.1845 11.4365 13.1984C11.44 13.2123 11.44 13.2269 11.4365 13.2409C11.4331 13.2548 11.4262 13.2677 11.4165 13.2783L7.79608 17.3715C7.75933 17.4145 7.71295 17.4483 7.6607 17.47C7.60846 17.4917 7.55183 17.5009 7.4954 17.4966L4.89767 17.3636C4.78968 17.3552 4.6812 17.3717 4.5806 17.4119C4.48 17.4521 4.38995 17.5148 4.31739 17.5952L3.81233 18.1496C3.79281 18.1706 3.77863 18.1959 3.77098 18.2235C3.76334 18.2511 3.76246 18.2801 3.76842 18.3081C3.77438 18.3361 3.787 18.3622 3.80521 18.3843C3.82343 18.4064 3.8467 18.4237 3.87305 18.4349L6.73607 19.8404C6.90728 19.9059 7.04746 20.0336 7.12862 20.198L8.79874 22.9219C8.81231 22.9471 8.83176 22.9687 8.85544 22.9847C8.87911 23.0008 8.90632 23.011 8.93475 23.0143C8.96318 23.0176 8.99199 23.014 9.01874 23.0039C9.04549 22.9937 9.0694 22.9772 9.08842 22.9558L9.59012 22.4051C9.6626 22.3249 9.71617 22.2295 9.74687 22.1259C9.77757 22.0223 9.78462 21.9131 9.76751 21.8065L9.39278 19.1885C9.38379 19.1327 9.38784 19.0756 9.4046 19.0217C9.42137 18.9677 9.4504 18.9183 9.48942 18.8775L13.2376 14.9426C13.2475 14.9324 13.2597 14.9248 13.2732 14.9203C13.2866 14.9158 13.301 14.9146 13.315 14.9168C13.329 14.919 13.3423 14.9245 13.3538 14.9328C13.3653 14.9412 13.3745 14.9522 13.3809 14.9649L16.5909 20.9137C16.7024 21.1357 16.9472 21.2382 17.1128 21.0564L17.8253 20.2742C17.9058 20.1857 17.9627 20.0782 17.9907 19.9619C18.0187 19.8455 18.0168 19.7239 17.9854 19.6085L16.1083 12.0169C16.1045 12.0024 16.1045 11.9871 16.1082 11.9726C16.112 11.958 16.1195 11.9447 16.1299 11.9338L18.139 9.84113C18.2446 9.73852 18.5877 9.36789 18.6873 9.25848C20.0194 7.79623 20.3888 6.44325 19.8048 5.91125C19.2208 5.37924 17.907 5.86661 16.5743 7.32961Z" fill="#FF0100"/>
</g>
<defs>
<clipPath id="clip0">
<rect width="20" height="16.428" fill="white" transform="translate(25.8761 11.4378) rotate(132.332)"/>
</clipPath>
</defs>
</svg>
