<svg id="Icon_ionic-ios-airplane" data-name="Icon ionic-ios-airplane" xmlns="http://www.w3.org/2000/svg" width="20" height="16.428" viewBox="0 0 20 16.428">
  <path id="Icon_ionic-ios-airplane-2" data-name="Icon ionic-ios-airplane" d="M19.021,11.848c-.152,0-.661,0-.8.013l-2.9.076a.083.083,0,0,1-.076-.04L10.9,5.393a.717.717,0,0,0-.6-.33H9.24c-.25,0-.335.25-.246.482l2.236,6.375a.087.087,0,0,1-.08.121l-5.464.08a.36.36,0,0,1-.295-.138L3.74,9.973A.708.708,0,0,0,3.178,9.7h-.75a.178.178,0,0,0-.17.237L3.147,13a.728.728,0,0,1,0,.531L2.258,16.6a.178.178,0,0,0,.17.237h.745a.722.722,0,0,0,.562-.272l1.683-2.04a.366.366,0,0,1,.295-.138l5.433.121a.089.089,0,0,1,.08.121L8.99,21.008c-.089.232,0,.482.246.482h1.058a.712.712,0,0,0,.6-.33l4.348-6.5a.088.088,0,0,1,.076-.04l2.9.076c.147.009.652.013.8.013,1.978,0,3.227-.638,3.227-1.428S21,11.848,19.021,11.848Z" transform="translate(-2.248 -5.063)" fill="#ffffff"/>
</svg>
