<svg width="68" height="68" viewBox="0 0 68 68" fill="none" xmlns="http://www.w3.org/2000/svg">
<path d="M34 68C52.7777 68 68 52.7777 68 34C68 15.2223 52.7777 0 34 0C15.2223 0 0 15.2223 0 34C0 52.7777 15.2223 68 34 68Z" fill="#F5F5F5"/>
<g clip-path="url(#clip0)">
<path d="M40.321 34.752C40.331 33.8333 40.5739 32.9321 41.027 32.1328C41.4802 31.3335 42.1288 30.6623 42.912 30.182C42.4143 29.4733 41.7589 28.8897 40.9976 28.4771C40.2362 28.0645 39.3895 27.8341 38.524 27.804C36.655 27.615 34.877 28.904 33.924 28.904C32.971 28.904 31.519 27.832 29.964 27.861C28.9473 27.8903 27.9556 28.1832 27.0861 28.7111C26.2166 29.2389 25.4992 29.9835 25.004 30.872C22.888 34.542 24.464 39.983 26.525 42.961C27.533 44.419 28.735 46.061 30.313 45.998C31.833 45.937 32.407 45.015 34.245 45.015C36.083 45.015 36.599 45.998 38.207 45.968C39.842 45.938 40.878 44.482 41.879 43.02C42.5942 41.9681 43.154 40.8187 43.541 39.607C42.5887 39.2007 41.7763 38.5244 41.2041 37.6616C40.6319 36.7988 40.3249 35.7873 40.321 34.752V34.752ZM37.299 25.832C38.205 24.7693 38.654 23.3915 38.548 21.999C37.181 22.132 35.9166 22.7828 35.014 23.818C34.5636 24.3199 34.2188 24.9073 33.9999 25.5451C33.7811 26.183 33.6927 26.8583 33.74 27.531C34.4238 27.5404 35.1006 27.3921 35.7178 27.0976C36.335 26.8032 36.8761 26.3704 37.299 25.833V25.832Z" fill="#1C1C1C"/>
</g>
<defs>
<clipPath id="clip0">
<rect width="19.542" height="24" fill="white" transform="translate(24 22)"/>
</clipPath>
</defs>
</svg>
