<svg xmlns="http://www.w3.org/2000/svg" width="38" height="38" viewBox="0 0 38 38">
  <g id="Group_235" data-name="Group 235" transform="translate(-36 -190)">
    <g id="Group_230" data-name="Group 230">
      <circle id="Ellipse_11" data-name="Ellipse 11" cx="19" cy="19" r="19" transform="translate(36 190)" fill="#ff0100"/>
      <path id="Icon_awesome-robot" data-name="Icon awesome-robot" d="M0,9.537v6.269a1.316,1.316,0,0,0,1.317,1.317H2.634V9.22H1.317C.589,9.22,0,8.809,0,9.537ZM19.1,3.951h-4.61V1.317a1.317,1.317,0,0,0-2.634,0V3.951H7.244A3.292,3.292,0,0,0,3.951,7.244v11.2a2.637,2.637,0,0,0,2.634,2.634H19.757a2.637,2.637,0,0,0,2.634-2.634V7.244A3.292,3.292,0,0,0,19.1,3.951ZM9.22,11.184a1.646,1.646,0,1,1,1.646-1.646A1.646,1.646,0,0,1,9.22,11.184Zm7.9,0a1.646,1.646,0,1,1,1.646-1.646A1.646,1.646,0,0,1,17.123,11.184Zm7.9-1.964H23.708v7.9h1.317a1.316,1.316,0,0,0,1.317-1.317V10.537A1.316,1.316,0,0,0,25.026,9.22Z" transform="translate(42.329 197.463)" fill="#fff"/>
    </g>
    <g id="Group_229" data-name="Group 229" transform="translate(58.698 214.383) rotate(180)">
      <path id="Path_252" data-name="Path 252" d="M75.143,98.527a.855.855,0,0,1-.932-.745,1.367,1.367,0,0,0-2.667,0,.956.956,0,0,1-1.865,0,2.314,2.314,0,0,1,.937-1.808,3.79,3.79,0,0,1,4.523,0,2.314,2.314,0,0,1,.937,1.808A.855.855,0,0,1,75.143,98.527Z" transform="translate(-69.679 -95.225)" fill="#ff0100"/>
    </g>
  </g>
</svg>
