<svg width="38" height="38" viewBox="0 0 38 38" fill="none" xmlns="http://www.w3.org/2000/svg">
<path d="M19 38C29.4934 38 38 29.4934 38 19C38 8.50659 29.4934 0 19 0C8.50659 0 0 8.50659 0 19C0 29.4934 8.50659 38 19 38Z" fill="#FF0100"/>
<g clip-path="url(#clip0)">
<path fill-rule="evenodd" clip-rule="evenodd" d="M19.688 14.943C20.3823 15.101 21.0025 15.4895 21.4476 16.0452C21.8927 16.6009 22.1364 17.291 22.139 18.003V25.855C22.1393 25.8934 22.1546 25.9301 22.1818 25.9572C22.2089 25.9844 22.2456 25.9998 22.284 26H24.861C24.8994 25.9998 24.9361 25.9844 24.9633 25.9572C24.9904 25.9301 25.0058 25.8934 25.006 25.855V18.003C25.006 16.4109 24.3736 14.884 23.2478 13.7583C22.122 12.6325 20.5951 12 19.003 12C17.4109 12 15.884 12.6325 14.7582 13.7583C13.6325 14.884 13 16.4109 13 18.003V25.854C13.0003 25.8924 13.0156 25.9291 13.0428 25.9563C13.0699 25.9834 13.1066 25.9987 13.145 25.999H15.722C15.7604 25.9987 15.7971 25.9834 15.8242 25.9563C15.8514 25.9291 15.8667 25.8924 15.867 25.854V18.003C15.8698 17.2912 16.1137 16.6013 16.5587 16.0458C17.0038 15.4903 17.6239 15.1019 18.318 14.944C18.769 14.8425 19.237 14.8425 19.688 14.944V14.943Z" fill="white"/>
</g>
<defs>
<clipPath id="clip0">
<rect width="12.297" height="14" fill="white" transform="translate(13 12)"/>
</clipPath>
</defs>
</svg>
