<svg width="68" height="68" viewBox="0 0 68 68" fill="none" xmlns="http://www.w3.org/2000/svg">
<path d="M34 68C52.7777 68 68 52.7777 68 34C68 15.2223 52.7777 0 34 0C15.2223 0 0 15.2223 0 34C0 52.7777 15.2223 68 34 68Z" fill="#F5F5F5"/>
<g clip-path="url(#clip0)">
<path d="M40.012 35.5L40.679 31.157H36.511V28.338C36.4819 28.0136 36.5262 27.6868 36.6405 27.3818C36.7549 27.0767 36.9363 26.8014 37.1715 26.576C37.4067 26.3506 37.6895 26.181 37.9991 26.0798C38.3087 25.9785 38.6371 25.9482 38.96 25.991H40.855V22.293C39.7423 22.1134 38.618 22.0155 37.491 22C34.059 22 31.816 24.08 31.816 27.846V31.156H28V35.5H31.816V46H36.516V35.5H40.012Z" fill="#1C1C1C"/>
</g>
<defs>
<clipPath id="clip0">
<rect width="12.854" height="24" fill="white" transform="translate(28 22)"/>
</clipPath>
</defs>
</svg>
