<svg width="68" height="68" viewBox="0 0 68 68" fill="none" xmlns="http://www.w3.org/2000/svg">
<path d="M34 68C52.7777 68 68 52.7777 68 34C68 15.2223 52.7777 0 34 0C15.2223 0 0 15.2223 0 34C0 52.7777 15.2223 68 34 68Z" fill="#F5F5F5"/>
<g clip-path="url(#clip0)">
<path d="M45.613 34.28C45.613 41.127 40.924 45.999 34 45.999C32.4241 45.999 30.8637 45.6886 29.4078 45.0856C27.9519 44.4825 26.629 43.5986 25.5147 42.4843C24.4004 41.37 23.5165 40.0471 22.9134 38.5912C22.3104 37.1353 22 35.5749 22 33.999C22 32.4231 22.3104 30.8627 22.9134 29.4068C23.5165 27.9509 24.4004 26.628 25.5147 25.5137C26.629 24.3994 27.9519 23.5155 29.4078 22.9124C30.8637 22.3094 32.4241 21.999 34 21.999C36.9874 21.9639 39.872 23.0888 42.047 25.137L38.781 28.277C34.508 24.158 26.563 27.254 26.563 34C26.547 35.9902 27.3209 37.9055 28.7151 39.3259C30.1093 40.7464 32.0098 41.5559 34 41.577C38.752 41.577 40.532 38.171 40.813 36.404H34V32.277H45.424C45.5508 32.9371 45.6141 33.6078 45.613 34.28V34.28Z" fill="#1C1C1C"/>
</g>
<defs>
<clipPath id="clip0">
<rect width="23.613" height="24" fill="white" transform="translate(22 22)"/>
</clipPath>
</defs>
</svg>
