<svg xmlns="http://www.w3.org/2000/svg" width="36.368" height="29.99" viewBox="0 0 36.368 29.99">
  <g id="Group_47" data-name="Group 47" transform="translate(-1176.756 -792.681)">
    <path id="Path_33" data-name="Path 33" d="M1193.528,792.681h.87a2.265,2.265,0,0,1,1.76.839l.36.444a2.506,2.506,0,0,1,.559,1.577v1.02a3.873,3.873,0,0,1-.884,2.464l-.148.181a1.1,1.1,0,0,1-1.011.387l-.507-.077.675-1.935a4.492,4.492,0,0,0,.217-2.03h0a1.32,1.32,0,0,0-.986-1.12l-1.184-.3a.468.468,0,0,1-.354-.454v-.361A.634.634,0,0,1,1193.528,792.681Z" transform="translate(-7.541)" fill="#bebebe"/>
    <path id="Path_34" data-name="Path 34" d="M1191.914,809.813l2.329-2.457a.737.737,0,0,1,1.152.105l3.689,5.677a.736.736,0,0,1-.617,1.137h-4.5a.736.736,0,0,1-.666-.423l-1.515-3.22A.737.737,0,0,1,1191.914,809.813Z" transform="translate(-6.989 -6.751)" fill="#bebebe"/>
    <path id="Path_35" data-name="Path 35" d="M1213.259,826.477l-1.573-1.311a1.022,1.022,0,0,1-.367-.784v-.044a1.02,1.02,0,0,1,1.02-1.02h2.113a1.013,1.013,0,0,1,.171.014l12.44,2.108a1.02,1.02,0,0,1,.85,1.006v.675a1.02,1.02,0,0,1-1.131,1.014l-12.98-1.429A1.018,1.018,0,0,1,1213.259,826.477Z" transform="translate(-16.151 -14.317)" fill="#bebebe"/>
    <path id="Path_36" data-name="Path 36" d="M1177.731,793.872h4.628a1.523,1.523,0,0,1,.936.322l2.73,2.129a1.254,1.254,0,0,1,.484.99h0a1.405,1.405,0,0,1-.6,1.151l-1.779,1.249a.5.5,0,0,0-.215.4l-.152,4.779a2.849,2.849,0,0,0,.267,1.3l.854,1.83a1.8,1.8,0,0,0,1.568,1.037l4.8.167a1.792,1.792,0,0,1,1.079.408l1.914,1.578a1.7,1.7,0,0,1,.342.382l1.49,2.276,15.964,1.985a1.264,1.264,0,0,1,1.052.882h0a.763.763,0,0,1-.729.987h-10.71l-.136.453h-.5l-.182.5H1184a2.24,2.24,0,0,1-1.224-.364l-.511-.333a2.518,2.518,0,0,1-1.092-1.6l-4.4-21.329A.975.975,0,0,1,1177.731,793.872Z" transform="translate(0 -0.556)" fill="#bebebe"/>
    <rect id="Rectangle_48" data-name="Rectangle 48" width="19.283" height="2.04" rx="1.02" transform="translate(1182.574 820.631)" fill="#bebebe"/>
  </g>
</svg>
