<svg xmlns="http://www.w3.org/2000/svg" width="23.933" height="31.062" viewBox="0 0 23.933 31.062">
  <g id="Group_45" data-name="Group 45" transform="translate(-749.435 -788.058)">
    <ellipse id="Ellipse_26" data-name="Ellipse 26" cx="2.023" cy="2.932" rx="2.023" ry="2.932" transform="translate(754.636 789.765) rotate(-24.949)" fill="#bebebe"/>
    <path id="Path_28" data-name="Path 28" d="M765.443,818.77h-9.8l-2.024-12.44a1.812,1.812,0,0,0-2.08-1.5l-.58.094a1.813,1.813,0,0,0-1.5,2.08l2.352,14.451a1.808,1.808,0,0,0,1.8,1.515c.03,0,.059.009.089.009h11.745a1.812,1.812,0,0,0,1.812-1.812v-.587A1.812,1.812,0,0,0,765.443,818.77Z" transform="translate(0 -8.621)" fill="#bebebe"/>
    <path id="Path_29" data-name="Path 29" d="M780.532,825.555l-2.2-9.536a1.77,1.77,0,0,0,.079-.411l.038-.586a1.813,1.813,0,0,0-1.693-1.924l-7.694-.492-1.461-6.323a1.813,1.813,0,0,0-2.174-1.358l-.572.132a1.813,1.813,0,0,0-1.358,2.174l1.871,8.1a1.807,1.807,0,0,0,2.028,1.376c.041.005.079.017.121.02l7.368.471L777,826.371a1.813,1.813,0,0,0,2.174,1.358h0A1.812,1.812,0,0,0,780.532,825.555Z" transform="translate(-7.211 -8.656)" fill="#bebebe"/>
  </g>
</svg>
