<svg xmlns="http://www.w3.org/2000/svg" width="34.809" height="34.324" viewBox="0 0 34.809 34.324">
  <g id="Group_46" data-name="Group 46" transform="translate(-956.721 -782.058)">
    <ellipse id="Ellipse_27" data-name="Ellipse 27" cx="2.079" cy="3.012" rx="2.079" ry="3.012" transform="translate(963.062 783.812) rotate(-24.949)" fill="#bebebe"/>
    <path id="Path_30" data-name="Path 30" d="M983,807.232h-6.216l-2.2-5.531a1.173,1.173,0,0,1,.288-1.288l2.118-1.986a1.054,1.054,0,0,1,1.659.289Z" transform="translate(-8.916 -8.064)" fill="#bebebe"/>
    <path id="Path_31" data-name="Path 31" d="M957.665,801.234H962.1a1.391,1.391,0,0,1,1.28.846l3.555,8.352h6.887a1.456,1.456,0,0,1,1.215.654l2.529,3.833h2.915a1.3,1.3,0,0,1,1.236.887l1.661,4.911a.6.6,0,0,1-.566.795l-18.29.118a.916.916,0,0,1-.865-.6l-6.879-18.528A.944.944,0,0,1,957.665,801.234Z" transform="translate(0 -9.614)" fill="#bebebe"/>
    <rect id="Rectangle_47" data-name="Rectangle 47" width="18.05" height="1.91" rx="0.955" transform="translate(965.09 814.472)" fill="#bebebe"/>
    <path id="Path_32" data-name="Path 32" d="M996.8,818.664h6.414a1.533,1.533,0,0,1,1.317.749l7.006,11.782a.611.611,0,0,1-.525.923h-1.652l-7.259-9.678a1.218,1.218,0,0,0-1.026-.486l-2.577.107Z" transform="translate(-20.094 -18.353)" fill="#bebebe"/>
  </g>
</svg>
