<svg width="68" height="68" viewBox="0 0 68 68" fill="none" xmlns="http://www.w3.org/2000/svg">
<path d="M34 68C52.7777 68 68 52.7777 68 34C68 15.2223 52.7777 0 34 0C15.2223 0 0 15.2223 0 34C0 52.7777 15.2223 68 34 68Z" fill="#F5F5F5"/>
<g clip-path="url(#clip0)">
<path d="M27.372 45.999H22.4V29.976H27.372V45.999ZM24.882 27.79C24.308 27.7938 23.7458 27.6271 23.2666 27.3111C22.7874 26.9952 22.4128 26.5441 22.1901 26.0151C21.9675 25.486 21.9068 24.9028 22.0158 24.3393C22.1248 23.7757 22.3986 23.2572 22.8025 22.8494C23.2064 22.4416 23.7223 22.1628 24.2847 22.0483C24.8472 21.9339 25.431 21.9889 25.9621 22.2064C26.4933 22.424 26.948 22.7942 27.2685 23.2704C27.5891 23.7465 27.7612 24.307 27.763 24.881C27.7638 25.6479 27.4614 26.3841 26.9218 26.929C26.3821 27.4739 25.6489 27.7834 24.882 27.79V27.79ZM45.995 45.999H41.03V38.199C41.03 36.34 40.993 33.956 38.443 33.956C35.856 33.956 35.46 35.976 35.46 38.065V45.999H30.489V29.976H35.261V32.162H35.331C35.8081 31.345 36.498 30.6728 37.3271 30.217C38.1563 29.7612 39.0935 29.539 40.039 29.574C45.074 29.574 46 32.89 46 37.199V45.999H45.995Z" fill="#1C1C1C"/>
</g>
<defs>
<clipPath id="clip0">
<rect width="24" height="23.999" fill="white" transform="translate(22 22)"/>
</clipPath>
</defs>
</svg>
