<svg xmlns="http://www.w3.org/2000/svg" width="13.406" height="19.5" viewBox="0 0 13.406 19.5">
  <path id="Icon_awesome-microphone" data-name="Icon awesome-microphone" d="M6.7,13.406A3.656,3.656,0,0,0,10.359,9.75V3.656a3.656,3.656,0,0,0-7.313,0V9.75A3.656,3.656,0,0,0,6.7,13.406ZM12.8,7.313h-.609a.609.609,0,0,0-.609.609V9.75A4.881,4.881,0,0,1,6.216,14.6,5.023,5.023,0,0,1,1.828,9.533V7.922a.609.609,0,0,0-.609-.609H.609A.609.609,0,0,0,0,7.922v1.53a6.913,6.913,0,0,0,5.789,6.92v1.3H3.656a.609.609,0,0,0-.609.609v.609a.609.609,0,0,0,.609.609H9.75a.609.609,0,0,0,.609-.609v-.609a.609.609,0,0,0-.609-.609H7.617V16.386A6.71,6.71,0,0,0,13.406,9.75V7.922A.609.609,0,0,0,12.8,7.313Z" fill="#bebebe"/>
</svg>
