<svg xmlns="http://www.w3.org/2000/svg" width="13.746" height="20" viewBox="0 0 13.746 20">
  <path id="Icon_awesome-question" data-name="Icon awesome-question" d="M8.691,0A7.568,7.568,0,0,0,1.968,3.556a.938.938,0,0,0,.2,1.284L3.856,6.118a.937.937,0,0,0,1.3-.162c.978-1.226,1.7-1.932,3.233-1.932,1.2,0,2.688.773,2.688,1.939,0,.881-.727,1.333-1.914,2C7.778,8.737,5.947,9.7,5.947,12.118V12.5a.937.937,0,0,0,.938.938H9.715a.937.937,0,0,0,.938-.937v-.226c0-1.674,4.893-1.744,4.893-6.274C15.546,2.588,12.007,0,8.691,0ZM8.3,14.588a2.706,2.706,0,1,0,2.706,2.706A2.709,2.709,0,0,0,8.3,14.588Z" transform="translate(-1.8)" fill="#ff0100"/>
</svg>
