<svg width="90" height="37" viewBox="0 0 90 37" fill="none" xmlns="http://www.w3.org/2000/svg">
<path d="M0 8.5H90" stroke="#BEBEBE" stroke-dasharray="5 5"/>
<g clip-path="url(#clip0)">
<path d="M90.0003 27.9791L0.000364184 27.8749" stroke="#BEBEBE" stroke-dasharray="5 5"/>
</g>
<path d="M38.2241 9.642C38.3761 9.642 38.8851 9.642 39.0241 9.629L41.9241 9.553C41.9392 9.5521 41.9542 9.55536 41.9676 9.56241C41.981 9.56946 41.9922 9.58004 42.0001 9.593L46.3451 16.097C46.4096 16.1977 46.4983 16.2806 46.6031 16.3383C46.7079 16.3959 46.8255 16.4264 46.9451 16.427H48.0051C48.2551 16.427 48.3401 16.177 48.2511 15.945L46.0151 9.57C46.0095 9.55678 46.0072 9.54237 46.0085 9.52807C46.0098 9.51376 46.0147 9.5 46.0226 9.48802C46.0305 9.47604 46.0413 9.4662 46.0539 9.45939C46.0666 9.45259 46.0807 9.44902 46.0951 9.449L51.5591 9.369C51.6156 9.3672 51.6718 9.37876 51.7231 9.40274C51.7743 9.42671 51.8192 9.46243 51.8541 9.507L53.5051 11.517C53.5716 11.6025 53.6569 11.6715 53.7543 11.7188C53.8518 11.7662 53.9587 11.7905 54.0671 11.79H54.8171C54.8457 11.7903 54.874 11.7838 54.8995 11.7708C54.925 11.7579 54.9471 11.739 54.9638 11.7158C54.9805 11.6925 54.9913 11.6656 54.9953 11.6372C54.9994 11.6089 54.9966 11.58 54.9871 11.553L54.0981 8.49C54.0312 8.31931 54.0312 8.12969 54.0981 7.959L54.9871 4.89C54.9966 4.863 54.9994 4.8341 54.9953 4.80577C54.9913 4.77744 54.9805 4.7505 54.9638 4.72724C54.9471 4.70398 54.925 4.68509 54.8995 4.67217C54.874 4.65924 54.8457 4.65267 54.8171 4.653H54.0721C53.964 4.65339 53.8574 4.67803 53.7601 4.72511C53.6629 4.77219 53.5774 4.8405 53.5101 4.925L51.8271 6.965C51.7919 7.00921 51.7469 7.04468 51.6958 7.06862C51.6446 7.09256 51.5886 7.10433 51.5321 7.103L46.0991 6.982C46.0849 6.98152 46.071 6.97765 46.0586 6.97071C46.0462 6.96378 46.0357 6.95398 46.0279 6.94214C46.02 6.9303 46.0151 6.91675 46.0136 6.90264C46.0121 6.88852 46.014 6.87425 46.0191 6.861L48.2551 0.482002C48.3441 0.250002 48.2551 1.90735e-06 48.0091 1.90735e-06H46.9511C46.8314 0.000144744 46.7137 0.0304557 46.6088 0.0881348C46.5039 0.145814 46.4153 0.229 46.3511 0.330002L42.0031 6.83C41.9949 6.84261 41.9836 6.8529 41.9703 6.8599C41.957 6.86691 41.9421 6.87038 41.9271 6.87L39.0271 6.794C38.8801 6.785 38.3751 6.781 38.2271 6.781C36.2491 6.781 35.0001 7.419 35.0001 8.209C35.0001 8.999 36.2451 9.642 38.2241 9.642Z" fill="#FF0100"/>
<path d="M51.7776 26.7928C51.6256 26.7926 51.1166 26.7921 50.9776 26.8049L48.0775 26.8775C48.0624 26.8784 48.0473 26.8751 48.0339 26.8681C48.0205 26.861 48.0093 26.8504 48.0015 26.8374L43.6641 20.3284C43.5996 20.2277 43.511 20.1446 43.4063 20.0869C43.3016 20.0291 43.184 19.9985 43.0645 19.9977L42.0045 19.9965C41.7545 19.9962 41.6692 20.2461 41.7579 20.4782L43.9865 26.8558C43.9921 26.869 43.9943 26.8834 43.993 26.8977C43.9917 26.912 43.9868 26.9258 43.9789 26.9378C43.971 26.9497 43.9602 26.9596 43.9475 26.9664C43.9349 26.9732 43.9207 26.9767 43.9064 26.9767L38.4423 27.0504C38.3857 27.0521 38.3296 27.0405 38.2783 27.0165C38.2271 26.9924 38.1823 26.9566 38.1474 26.912L36.4988 24.9001C36.4323 24.8146 36.3471 24.7454 36.2497 24.698C36.1524 24.6505 36.0454 24.6261 35.9371 24.6265L35.1871 24.6256C35.1585 24.6252 35.1302 24.6318 35.1046 24.6447C35.0791 24.6576 35.057 24.6764 35.0403 24.6997C35.0236 24.7229 35.0127 24.7498 35.0086 24.7782C35.0046 24.8065 35.0074 24.8354 35.0168 24.8624L35.9023 27.9264C35.9689 28.0972 35.9687 28.2868 35.9017 28.4574L35.0091 31.5254C34.9996 31.5524 34.9967 31.5813 35.0007 31.6096C35.0048 31.638 35.0155 31.6649 35.0322 31.6882C35.0489 31.7115 35.0709 31.7304 35.0964 31.7433C35.1219 31.7563 35.1502 31.7629 35.1788 31.7626L35.9238 31.7635C36.0319 31.7632 36.1385 31.7387 36.2358 31.6917C36.3332 31.6448 36.4187 31.5765 36.4861 31.4921L38.1715 29.4541C38.2067 29.4099 38.2517 29.3745 38.3029 29.3506C38.3541 29.3267 38.4102 29.315 38.4667 29.3164L43.8995 29.4437C43.9137 29.4442 43.9276 29.4481 43.9399 29.455C43.9523 29.462 43.9629 29.4718 43.9707 29.4836C43.9785 29.4955 43.9834 29.509 43.9849 29.5232C43.9864 29.5373 43.9845 29.5516 43.9794 29.5648L41.736 35.9412C41.6467 36.1731 41.7354 36.4232 41.9814 36.4235L43.0394 36.4247C43.1591 36.4247 43.2769 36.3945 43.3818 36.337C43.4867 36.2794 43.5755 36.1963 43.6398 36.0954L47.9953 29.6004C48.0035 29.5878 48.0148 29.5776 48.0282 29.5706C48.0415 29.5636 48.0564 29.5601 48.0714 29.5605L50.9713 29.6399C51.1183 29.6491 51.6233 29.6536 51.7713 29.6538C53.7493 29.6561 54.999 29.0196 54.9999 28.2296C55.0008 27.4396 53.7566 26.7951 51.7776 26.7928Z" fill="#FF0100"/>
<defs>
<clipPath id="clip0">
<rect width="90" height="1" fill="white" transform="translate(89.9997 28.4791) rotate(-179.934)"/>
</clipPath>
</defs>
</svg>
