<svg id="Icon_feather-settings" data-name="Icon feather-settings" xmlns="http://www.w3.org/2000/svg" width="26.4" height="26.4" viewBox="0 0 26.4 26.4">
  <path id="Path_21" data-name="Path 21" d="M19.882,16.691A3.191,3.191,0,1,1,16.691,13.5,3.191,3.191,0,0,1,19.882,16.691Z" transform="translate(-3.491 -3.491)" fill="none" stroke="#ff0100" stroke-linecap="round" stroke-linejoin="round" stroke-width="3"/>
  <path id="Path_22" data-name="Path 22" d="M21.071,16.391a1.755,1.755,0,0,0,.351,1.936l.064.064a2.128,2.128,0,1,1-3.01,3.01l-.064-.064a1.769,1.769,0,0,0-3,1.255v.181a2.127,2.127,0,1,1-4.255,0v-.1a1.755,1.755,0,0,0-1.149-1.606,1.755,1.755,0,0,0-1.936.351l-.064.064A2.128,2.128,0,1,1,5,18.476l.064-.064a1.769,1.769,0,0,0-1.255-3H3.627a2.127,2.127,0,1,1,0-4.255h.1a1.755,1.755,0,0,0,1.606-1.149,1.755,1.755,0,0,0-.351-1.936l-.064-.064A2.128,2.128,0,1,1,7.924,5l.064.064a1.755,1.755,0,0,0,1.936.351h.085a1.755,1.755,0,0,0,1.064-1.606V3.627a2.127,2.127,0,1,1,4.255,0v.1a1.769,1.769,0,0,0,3,1.255l.064-.064a2.128,2.128,0,1,1,3.01,3.01l-.064.064a1.755,1.755,0,0,0-.351,1.936v.085a1.755,1.755,0,0,0,1.606,1.064h.181a2.127,2.127,0,1,1,0,4.255h-.1a1.755,1.755,0,0,0-1.606,1.064Z" fill="none" stroke="#bebebe" stroke-linecap="round" stroke-linejoin="round" stroke-width="3"/>
</svg>
