<svg xmlns="http://www.w3.org/2000/svg" width="18.857" height="16.5" viewBox="0 0 18.857 16.5">
  <path id="Icon_awesome-suitcase" data-name="Icon awesome-suitcase" d="M4.714,18.75h9.429V4.018A1.768,1.768,0,0,0,12.375,2.25H6.482A1.768,1.768,0,0,0,4.714,4.018ZM7.071,4.607h4.714V5.786H7.071ZM18.857,7.554v9.429a1.768,1.768,0,0,1-1.768,1.768H15.321V5.786h1.768A1.768,1.768,0,0,1,18.857,7.554ZM3.536,18.75H1.768A1.768,1.768,0,0,1,0,16.982V7.554A1.768,1.768,0,0,1,1.768,5.786H3.536Z" transform="translate(0 -2.25)" fill="#ff0100"/>
</svg>
