<svg width="91" height="18" viewBox="0 0 91 18" fill="none" xmlns="http://www.w3.org/2000/svg">
<g clip-path="url(#clip0)">
<path d="M90.0008 9.31183L0.00408101 8.54478" stroke="#BEBEBE" stroke-dasharray="5 5"/>
</g>
<g clip-path="url(#clip1)">
<path d="M51.7849 7.84305C51.6329 7.84176 51.124 7.83742 50.9849 7.84923L48.0843 7.90051C48.0692 7.90128 48.0542 7.8979 48.0408 7.89074C48.0275 7.88357 48.0164 7.8729 48.0087 7.85987L43.7193 1.31907C43.6556 1.21784 43.5676 1.13415 43.4633 1.07563C43.359 1.0171 43.2417 0.985589 43.1221 0.98397L42.0621 0.974936C41.8121 0.972806 41.725 1.22207 41.812 1.45482L43.9936 7.84865C43.9991 7.86192 44.0012 7.87634 43.9998 7.89064C43.9984 7.90493 43.9934 7.91865 43.9854 7.93056C43.9774 7.94248 43.9665 7.95222 43.9538 7.95892C43.9411 7.96562 43.9269 7.96907 43.9126 7.96896L38.4481 8.00239C38.3915 8.00371 38.3354 7.99167 38.2844 7.96726C38.2333 7.94285 38.1888 7.90674 38.1543 7.86188L36.5205 5.83788C36.4547 5.75185 36.37 5.68208 36.273 5.63392C36.1759 5.58576 36.0691 5.56051 35.9608 5.5601L35.2109 5.55371C35.1822 5.55313 35.1539 5.55947 35.1283 5.57217C35.1026 5.58488 35.0804 5.60358 35.0635 5.6267C35.0466 5.64981 35.0356 5.67666 35.0313 5.70495C35.027 5.73325 35.0296 5.76217 35.0388 5.78925L35.9017 8.85972C35.9671 9.03097 35.9655 9.22059 35.8972 9.3907L34.9821 12.452C34.9723 12.4789 34.9692 12.5078 34.9731 12.5362C34.9769 12.5645 34.9875 12.5916 35.004 12.615C35.0204 12.6384 35.0423 12.6574 35.0678 12.6706C35.0932 12.6837 35.1214 12.6905 35.15 12.6905L35.895 12.6968C36.0031 12.6973 36.1099 12.6736 36.2075 12.6274C36.3052 12.5811 36.3912 12.5135 36.4593 12.4296L38.1596 10.404C38.1952 10.3601 38.2404 10.325 38.2918 10.3015C38.3432 10.278 38.3993 10.2667 38.4558 10.2685L43.8876 10.4358C43.9017 10.4364 43.9156 10.4404 43.9279 10.4475C43.9402 10.4545 43.9507 10.4644 43.9584 10.4763C43.9662 10.4882 43.9709 10.5018 43.9723 10.5159C43.9737 10.5301 43.9717 10.5443 43.9665 10.5575L41.6762 16.9172C41.5853 17.1485 41.6721 17.3992 41.9181 17.4013L42.9761 17.4103C43.0958 17.4112 43.2137 17.3819 43.3191 17.3251C43.4245 17.2683 43.5138 17.1859 43.5789 17.0854L47.9821 10.6227C47.9904 10.6102 48.0018 10.6 48.0152 10.5931C48.0285 10.5862 48.0434 10.5829 48.0585 10.5834L50.9577 10.6841C51.1046 10.6944 51.6096 10.7027 51.7576 10.7039C53.7355 10.7208 54.9899 10.0934 54.9966 9.30348C55.0033 8.51351 53.7639 7.85992 51.7849 7.84305Z" fill="#BEBEBE"/>
</g>
<defs>
<clipPath id="clip0">
<rect width="90" height="1" fill="white" transform="translate(89.9966 9.8118) rotate(-179.512)"/>
</clipPath>
<clipPath id="clip1">
<rect width="20" height="16.428" fill="white" transform="translate(54.9296 17.5132) rotate(-179.512)"/>
</clipPath>
</defs>
</svg>
