<?xml version="1.0" encoding="utf-8"?>
<!-- Generator: Adobe Illustrator 24.0.1, SVG Export Plug-In . SVG Version: 6.00 Build 0)  -->
<svg version="1.1" id="Layer_1" xmlns="http://www.w3.org/2000/svg" xmlns:xlink="http://www.w3.org/1999/xlink" x="0px" y="0px"
	 viewBox="0 0 512 512" style="enable-background:new 0 0 512 512;" xml:space="preserve">
<style type="text/css">
	.st0{fill:#FFFFFF;}
	.st1{fill:#2F519F;}
	.st2{fill:#A2C83A;}
	.st3{fill:#49A6C2;}
	.st4{fill:#E6213E;}
</style>
<rect class="st0" width="512" height="512"/>
<g>
	<path class="st1" d="M242.71,173.22c5.81-7.28,13.04-2.72,13.04-2.72h0.01c-0.18-4.7-3.06-9.07-7.7-10.87
		c-4.65-1.84-9.75-0.59-13.04,2.72C235.01,162.35,243.4,163.94,242.71,173.22L242.71,173.22z"/>
	<path class="st2" d="M163.18,199.43c-0.59,0.19-1.19,0.39-1.8,0.59l-0.08,0.02c-0.59,0.2-1.17,0.4-1.77,0.6l-0.12,0.05
		c-0.59,0.22-1.15,0.42-1.76,0.63l-0.19,0.06c-0.58,0.22-1.15,0.42-1.75,0.65l-0.22,0.08c-0.59,0.22-1.18,0.46-1.77,0.69l-0.25,0.09
		c-0.59,0.25-1.19,0.48-1.81,0.74l-0.25,0.09c-0.61,0.26-1.23,0.53-1.83,0.79l-0.25,0.11c-0.62,0.28-1.27,0.57-1.92,0.85l-0.22,0.09
		c-0.68,0.32-1.35,0.63-2.03,0.94l-0.13,0.08c-3.71,1.74-7.55,3.75-11.6,6.02l-0.09,0.05c-0.73,0.43-1.51,0.88-2.29,1.33l-0.47,0.29
		c-0.64,0.37-1.29,0.76-1.95,1.16l-0.69,0.42c-0.59,0.37-1.18,0.73-1.77,1.08l-0.85,0.54c-0.54,0.36-1.09,0.71-1.63,1.05
		c-0.32,0.2-0.63,0.43-0.95,0.6c-0.52,0.34-1.05,0.7-1.59,1.05c-0.33,0.22-0.67,0.45-1,0.68c-0.52,0.34-1.03,0.69-1.55,1.05
		c-0.35,0.23-0.69,0.48-1.06,0.73c-0.5,0.36-1.03,0.71-1.53,1.08c-0.37,0.28-0.73,0.53-1.1,0.79c-0.49,0.35-1.01,0.74-1.53,1.1
		c-0.38,0.28-0.76,0.56-1.13,0.83c-0.52,0.37-1.02,0.74-1.55,1.13c-0.37,0.29-0.76,0.57-1.15,0.87c-0.51,0.4-1.01,0.79-1.54,1.17
		c-0.39,0.31-0.8,0.62-1.19,0.93c-0.52,0.39-1.03,0.82-1.54,1.21c-0.4,0.32-0.8,0.63-1.2,0.96c-0.51,0.42-1.05,0.83-1.56,1.25
		c-0.4,0.34-0.81,0.68-1.23,1c-0.52,0.45-1.05,0.88-1.57,1.31c-0.42,0.34-0.8,0.68-1.23,1.04c-0.53,0.43-1.07,0.9-1.61,1.36
		c-0.41,0.36-0.81,0.69-1.22,1.03c-0.56,0.5-1.11,0.98-1.68,1.46c-0.4,0.36-0.8,0.7-1.19,1.06c-0.58,0.51-1.17,1.04-1.77,1.57
		c-0.37,0.35-0.75,0.66-1.13,1.03c-0.64,0.59-1.3,1.2-1.95,1.81c-0.33,0.29-0.65,0.56-0.97,0.87c-0.97,0.9-1.96,1.83-2.93,2.78
		C51.77,281.13,26.22,296.25,6,302.99c11.78-2.63,24.67-5.34,36.99-11C78.3,275.86,125.84,220.32,163.18,199.43L163.18,199.43z"/>
	<path class="st3" d="M44.93,291.09c0.44-0.22,0.9-0.43,1.34-0.65l0.2-0.09c0.49-0.25,1.01-0.5,1.53-0.76l0.38-0.2
		c0.42-0.22,0.85-0.43,1.29-0.65l0.28-0.15c0.53-0.25,1.03-0.53,1.55-0.79l0.35-0.2c0.43-0.22,0.86-0.46,1.28-0.68l0.36-0.19
		c0.5-0.28,1-0.56,1.51-0.83l0.32-0.19c0.43-0.23,0.86-0.46,1.29-0.71l0.39-0.23c0.52-0.29,1.03-0.57,1.55-0.88l0.18-0.11
		c0.47-0.26,0.94-0.54,1.41-0.79l0.39-0.25c0.53-0.31,1.05-0.62,1.56-0.93h0.04c0.53-0.32,1.02-0.63,1.56-0.93l0.39-0.28
		c0.46-0.26,0.93-0.54,1.38-0.82l0.23-0.14c0.5-0.31,1.02-0.63,1.54-0.96l0.41-0.25c0.43-0.26,0.86-0.53,1.29-0.8l0.32-0.19
		c0.51-0.34,1.03-0.66,1.56-0.99l0.39-0.25c0.42-0.25,0.84-0.53,1.24-0.8l0.43-0.25c0.51-0.31,1.01-0.65,1.52-0.99l0.38-0.25
		c0.4-0.25,0.81-0.53,1.23-0.77l0.48-0.31c0.5-0.34,0.99-0.65,1.48-0.96l0.42-0.29c0.39-0.23,0.79-0.5,1.17-0.73l0.59-0.4
		c0.41-0.28,0.81-0.53,1.22-0.8l0.62-0.4c0.37-0.25,0.75-0.49,1.14-0.74l0.7-0.46l0.82-0.56c0.57-0.37,1.17-0.77,1.77-1.16
		l0.15-0.11c4.29-2.84,8.59-5.68,12.87-8.5h0.01c1.17-0.77,2.33-1.53,3.49-2.29l0.09-0.03c1.15-0.77,2.29-1.51,3.43-2.24l0.1-0.06
		c1.14-0.73,2.3-1.46,3.42-2.16l0.08-0.05c0.56-0.36,1.1-0.7,1.64-1.03l0.08-0.04c0.57-0.35,1.14-0.71,1.71-1.07l0.05-0.03
		c0.52-0.33,1.06-0.65,1.61-0.98l0.16-0.1c1.09-0.66,2.19-1.31,3.27-1.96l0.22-0.12c1.08-0.65,2.16-1.27,3.24-1.89l0.22-0.12
		c1.07-0.62,2.15-1.21,3.22-1.81l0.19-0.09c0.52-0.28,1.03-0.56,1.53-0.83l0.08-0.05c0.53-0.29,1.07-0.56,1.62-0.85l0.16-0.09
		c0.5-0.25,0.97-0.5,1.48-0.74l0.15-0.08c0.55-0.28,1.05-0.55,1.58-0.83l0.12-0.05c0.5-0.24,0.99-0.46,1.45-0.71l0.23-0.11
		c0.53-0.25,1.05-0.5,1.57-0.74l0,0c0.53-0.23,1.01-0.45,1.53-0.69l0.24-0.09c1.04-0.46,2.05-0.9,3.07-1.31l0.22-0.09
		c1.01-0.42,2.04-0.82,3.03-1.19l0.24-0.09c0.48-0.17,0.93-0.32,1.38-0.5l0.12-0.03c0.51-0.19,1-0.34,1.49-0.51l0.21-0.06
		c0.44-0.14,0.9-0.28,1.33-0.42l0.2-0.08c0.48-0.14,0.97-0.29,1.47-0.42l0.16-0.05c0.42-0.12,0.87-0.23,1.29-0.36l0.25-0.06
		c0.48-0.12,0.96-0.23,1.44-0.35h0.02l0.1-0.02c0.32-0.08,0.66-0.15,0.99-0.22l0.25-0.06c0.29-0.06,0.59-0.11,0.87-0.17l0.3-0.05
		l0.8-0.14l0.35-0.08l0.76-0.12l0.36-0.05l0.76-0.09l0.35-0.05l0.74-0.09l0.34-0.02l0.77-0.06l0.32-0.05l0.82-0.06h0.25
		c0.33-0.02,0.63-0.03,0.95-0.05h0.12c0.72-0.02,1.44-0.02,2.15,0l0.18,0.02c0.29,0.02,0.58,0.03,0.87,0.03l0.29,0.03l0.73,0.05
		l0.35,0.05l0.68,0.06l0.37,0.06l0.64,0.06l0.39,0.08l0.63,0.08l0.38,0.08l0.63,0.12l0.38,0.08l0.63,0.14l0.36,0.09l0.67,0.19
		l0.32,0.08l0.75,0.22l0.24,0.08c0.66,0.2,1.29,0.46,1.94,0.7l0.26,0.09l0.7,0.31l0.33,0.14l0.62,0.28l0.37,0.17l0.56,0.28l0.39,0.2
		l0.54,0.29l0.38,0.22l0.55,0.31l0.39,0.23l0.52,0.34l0.39,0.23l0.52,0.36l0.38,0.26l0.54,0.4l0.36,0.25l0.59,0.45l0.29,0.23
		c0.29,0.23,0.59,0.48,0.87,0.71c-4.6-4.5-7.5-10.63-7.62-17.64c-0.18-9.53,4.84-17.95,12.43-22.6c-0.55-1.42-10.98-2.66-28.31,2.7
		c-28.68,10.1-84.89,76.43-120.19,92.56c0.52-0.22,1.03-0.46,1.54-0.71L44.93,291.09L44.93,291.09z"/>
	<path class="st4" d="M251.78,237.57c-2.86,1.7-5.45,3.24-7.79,4.77c-5.07,8.47-10.46,15.21-15.57,20.44l-0.53,0.54
		c-0.7,0.71-1.42,1.37-2.14,2.04l0,0l0,0l-0.16,0.09c-0.39,0.37-0.83,0.74-1.24,1.08l-0.14,0.09c-2.83,2.32-5.99,4.26-9.36,5.81
		l-0.22,0.09c-0.44,0.19-0.89,0.37-1.34,0.56l-0.52,0.22c-0.4,0.15-0.81,0.31-1.21,0.46l-0.71,0.25c-0.36,0.12-0.73,0.25-1.11,0.35
		l-0.86,0.26c-0.35,0.09-0.71,0.19-1.05,0.28c-0.32,0.09-0.65,0.16-0.96,0.25c-0.32,0.09-0.64,0.15-1,0.22
		c-0.35,0.06-0.71,0.16-1.07,0.22c-0.32,0.06-0.62,0.12-0.92,0.15c-0.41,0.06-0.81,0.12-1.22,0.19c-0.28,0.03-0.56,0.09-0.85,0.11
		c-0.46,0.05-0.92,0.08-1.37,0.12l-0.7,0.08c-0.71,0.03-1.41,0.06-2.12,0.06c-8.28,0.15-16.07-2.02-22.75-5.93
		c26.98,16.37,55.9,7.69,73.5-10.35c11.44-11.73,16.49-25.33,16.47-39.37C264.85,220.64,262.93,230.99,251.78,237.57L251.78,237.57z
		"/>
	<path class="st1" d="M232.71,169.55c-6.57,1.71-12.38,7.86-22.13,15.63c8.19-3.66,16.3,7.2,27.77,1.98
		c4.02-1.84,17.7-1.02,13.06,15.86c-2.38,8.68-6.54,16.17-11.57,22.34c-10.41,12.79-24.58,19.79-34.39,19.48
		c-7.3-0.25-13.97-3.14-18.77-7.86c-0.29-0.25-0.58-0.48-0.87-0.71l-0.29-0.23l-0.59-0.45l-0.36-0.25l-0.54-0.4l-0.38-0.26
		l-0.52-0.36l-0.41-0.23l-0.52-0.34l-0.38-0.23l-0.53-0.31l-0.4-0.22l-0.54-0.29l-0.39-0.2l-0.56-0.28l-0.37-0.17l-0.62-0.28
		l-0.33-0.14l-0.7-0.31l-0.26-0.09c-0.65-0.26-1.28-0.5-1.95-0.7l-0.23-0.06l-0.75-0.23l-0.32-0.08l-0.66-0.19l-0.37-0.08
		l-0.63-0.16l-0.38-0.08l-0.63-0.12l-0.38-0.08l-0.63-0.08l-0.39-0.08l-0.64-0.06l-0.37-0.08l-0.68-0.05l-0.35-0.05l-0.73-0.05
		l-0.29-0.03c-0.29-0.02-0.58-0.02-0.87-0.03h-0.18c-0.71-0.03-1.43-0.03-2.15-0.02h-0.12c-0.32,0.02-0.62,0.03-0.95,0.05
		l-0.25,0.01l-0.82,0.05l-0.32,0.05l-0.77,0.06l-0.34,0.02l-0.75,0.09l-0.34,0.05l-0.76,0.09l-0.36,0.05l-0.76,0.12l-0.35,0.08
		l-0.8,0.14l-0.3,0.03c-0.29,0.08-0.59,0.12-0.87,0.19l-0.24,0.06c-0.35,0.06-0.69,0.14-1,0.22l-0.12,0.02
		c-0.48,0.12-0.97,0.23-1.44,0.35l-0.25,0.06c-0.43,0.12-0.87,0.23-1.29,0.36l-0.16,0.05c-0.5,0.12-0.97,0.28-1.47,0.42l-0.2,0.08
		c-0.43,0.14-0.89,0.28-1.33,0.42l-0.21,0.06c-0.49,0.17-1,0.32-1.49,0.51l-0.12,0.03c-0.45,0.17-0.9,0.32-1.38,0.5l-0.24,0.09
		c-0.99,0.37-2.02,0.77-3.01,1.17l-0.24,0.11c-1.01,0.42-2.02,0.85-3.07,1.31l-0.24,0.11c-0.52,0.22-1,0.45-1.53,0.68l0,0
		c-0.52,0.25-1.03,0.49-1.57,0.74l-0.23,0.11c-0.46,0.25-0.96,0.48-1.45,0.71l-0.12,0.05c-0.53,0.27-1.03,0.55-1.58,0.83l-0.18,0.08
		c-0.48,0.24-0.95,0.49-1.45,0.73l-0.16,0.11c-0.55,0.28-1.09,0.56-1.62,0.85l-0.08,0.05c-0.5,0.28-1.01,0.56-1.53,0.83l-0.19,0.09
		c-1.07,0.59-2.15,1.19-3.24,1.81l-0.2,0.12c-1.08,0.62-2.16,1.24-3.24,1.89l-0.22,0.12c-1.08,0.65-2.19,1.3-3.27,1.96l-0.16,0.1
		c-0.55,0.33-1.09,0.65-1.62,0.99l-0.02,0.02c-0.59,0.36-1.15,0.71-1.72,1.07l-0.08,0.04c-0.54,0.34-1.09,0.68-1.64,1.03l-0.08,0.05
		c-1.13,0.7-2.28,1.44-3.42,2.16l-0.1,0.06c-1.14,0.73-2.28,1.47-3.43,2.21l-0.09,0.06c-1.17,0.76-2.32,1.51-3.49,2.29h-0.01
		c-4.28,2.81-8.58,5.65-12.87,8.5l-0.15,0.11c-0.6,0.39-1.2,0.79-1.77,1.16l-0.82,0.56l-0.7,0.46c-0.39,0.25-0.77,0.49-1.14,0.74
		l-0.62,0.4c-0.41,0.28-0.81,0.53-1.22,0.8l-0.59,0.4c-0.38,0.23-0.77,0.49-1.15,0.73l-0.43,0.28c-0.5,0.32-0.99,0.63-1.48,0.97
		l-0.48,0.31c-0.42,0.25-0.83,0.53-1.23,0.77l-0.38,0.25c-0.51,0.34-1.01,0.68-1.52,0.99l-0.43,0.25c-0.4,0.28-0.82,0.56-1.24,0.8
		l-0.39,0.25c-0.53,0.32-1.05,0.65-1.56,0.99l-0.32,0.19c-0.43,0.28-0.86,0.54-1.29,0.8l-0.39,0.25c-0.53,0.32-1.05,0.65-1.55,0.96
		l-0.23,0.12c-0.46,0.29-0.93,0.57-1.38,0.83l-0.39,0.28c-0.53,0.29-1.03,0.6-1.56,0.93h-0.04c-0.51,0.31-1.03,0.62-1.56,0.93
		L60.14,283c-0.46,0.25-0.93,0.53-1.41,0.79l-0.18,0.11c-0.52,0.31-1.04,0.59-1.55,0.9l-0.39,0.22c-0.43,0.25-0.86,0.48-1.29,0.71
		L55,285.9c-0.52,0.28-1.01,0.56-1.53,0.83l-0.36,0.19c-0.42,0.25-0.85,0.46-1.27,0.68l-0.35,0.2c-0.52,0.26-1.01,0.54-1.55,0.79
		l-0.28,0.15c-0.44,0.22-0.87,0.43-1.29,0.65l-0.38,0.2c-0.52,0.26-1.04,0.51-1.53,0.76l-0.2,0.09c-0.45,0.22-0.9,0.43-1.34,0.65
		l-0.39,0.19c-0.52,0.25-1.03,0.49-1.54,0.71c50.12-22.91,94.62-58.46,119.32-31.26c3.39,3.21,6.87,5.96,10.36,8.28l0.87,0.56
		c0.44,0.28,0.88,0.56,1.33,0.8c6.66,3.91,14.47,6.09,22.75,5.93c0.72,0,1.41-0.03,2.12-0.08l0.68-0.06
		c0.47-0.05,0.93-0.08,1.39-0.12c0.29-0.02,0.57-0.08,0.85-0.11c0.41-0.06,0.81-0.12,1.21-0.19c0.3-0.03,0.62-0.09,0.93-0.15
		c0.36-0.06,0.71-0.15,1.07-0.22c0.34-0.06,0.68-0.12,1-0.22c0.32-0.09,0.65-0.15,0.96-0.25c0.34-0.09,0.7-0.19,1.05-0.28l0.84-0.26
		c0.39-0.11,0.76-0.23,1.13-0.35l0.71-0.25c0.4-0.15,0.81-0.31,1.21-0.46l0.53-0.22c0.44-0.19,0.89-0.37,1.33-0.56l0.22-0.09
		c3.38-1.54,6.53-3.49,9.36-5.81l0.14-0.09c0.43-0.36,0.84-0.71,1.27-1.08l0.12-0.09c0.73-0.66,1.45-1.33,2.15-2.04l0.53-0.54
		c5.11-5.24,10.5-11.98,15.57-20.44c4.57-7.65,8.84-16.7,12.37-27.41C264.75,189.58,253.33,164.02,232.71,169.55L232.71,169.55z"/>
	<path class="st4" d="M354.35,232.85l-2.75-0.26h-2.66c-0.94,0-1.87,0.09-2.79,0.28c-0.91,0.19-1.84,0.53-2.67,0.93
		c-1.99,0.82-3.69,1.96-5.02,3.37c-0.45,0.49-0.87,1.02-1.27,1.56v-6.13h-10.16v45.88h10.16v-22.88c0-1.37-1.24-12.31,8.59-12.31
		C355.81,243.27,354.35,232.85,354.35,232.85L354.35,232.85z"/>
	<path class="st4" d="M408.3,279.93c0,1.78-0.06,3.48-0.2,5.02c-0.16,1.51-0.53,2.97-1.14,4.32c-0.9,1.95-1.98,3.58-3.29,4.88
		c-1.33,1.33-2.81,2.41-4.39,3.23l-2.84,1.47h3.18c1.87,0,3.65-0.22,5.27-0.59c1.62-0.4,3.48-1.11,5.54-2.15
		c2.98-1.53,5.19-3.44,6.52-5.75c1-1.78,1.55-3.75,1.55-5.82v-51.96H408.3V279.93L408.3,279.93z"/>
	<path class="st4" d="M411.92,217.91c-1.98,0-3.61,1.61-3.61,3.6v6.94l29.04-10.53H411.92L411.92,217.91z"/>
	<path class="st4" d="M449.99,238.65c5.33,0,9.92,3.44,11.65,8.22h-23.31C440.01,242.1,444.52,238.65,449.99,238.65L449.99,238.65z
		 M465.85,263.77c-0.34,0.23-0.66,0.51-1,0.79l-0.54,0.54c-2.78,2.55-7.03,4.12-11.05,4.12c-8.77,0-15.63-5.59-15.63-14.33v-0.5
		h35.82c-0.22-12.82-10.72-23.15-23.46-23.15c-13.16,0-23.71,10.58-23.71,23.62c0,13.05,10.55,23.63,23.71,23.63
		c9.58,0,18.04-5.04,22.91-12.6c0.22-0.34,0.45-0.68,0.65-1.02C470.26,263.45,467.72,262.5,465.85,263.77L465.85,263.77z"/>
	<path class="st4" d="M389.15,258.53c0,3.89-0.88,6.8-2.61,8.65c-1.37,1.48-3.4,2.41-5.99,2.73c-0.22,0.01-0.59,0.08-1.36,0.08
		l-1.08-0.08c-2.63-0.32-4.62-1.25-6.01-2.73c-1.73-1.85-2.6-4.76-2.6-8.65v-25.95h-10.19c0.03,1.47,0,3.63,0,6.83v20.85
		c0,5.55,1.51,10.01,4.43,13.28c2.7,3,6.33,4.73,10.8,5.1h0.06c4.09,0,7.51-0.74,10.19-2.22c1.64-0.9,3.09-2.15,4.36-3.71v5.59
		h10.33v-45.72h-16.36l1.44,0.73c0.48,0.25,0.93,0.56,1.34,0.91c0.31,0.23,0.62,0.46,0.88,0.73c0.66,0.68,1.22,1.51,1.67,2.49
		c0.32,0.7,0.51,1.44,0.59,2.19c0.08,0.81,0.11,1.66,0.11,2.57v16.15V258.53L389.15,258.53z"/>
	<path class="st4" d="M319.62,240.95v-8.36h-13.16v-14.75h-3.24c0,5.78-2.53,10.98-6.52,14.55l-0.54,0.51l-0.09,0.06l-0.11,0.09
		l-0.63,0.46c-1.75,1.33-3.71,2.38-5.85,3.04v4.39h6.52v21.85c0,8.87,7.21,16.06,16.1,16.06c2.22,0,4.36-0.46,6.3-1.3l0.19-0.09
		l-2.73-1.42c-1.64-0.8-3.17-1.95-4.54-3.31c-1.34-1.36-2.49-3.06-3.4-5.04c-0.63-1.42-1.02-2.93-1.16-4.48l-0.06-0.43
		c-0.11-1.48-0.19-3.09-0.19-4.76v-17.09H319.62L319.62,240.95z"/>
	<path class="st4" d="M506,240.95v-8.36h-13.18v-14.75h-3.26c0,5.78-2.53,10.98-6.49,14.55l-0.54,0.51l-0.09,0.06l-0.11,0.09
		l-0.62,0.46c-1.78,1.33-3.74,2.38-5.87,3.04v4.39h6.5v21.85c0,8.87,7.21,16.06,16.1,16.06c2.24,0,4.36-0.46,6.3-1.3l0.2-0.09
		l-2.75-1.42c-1.65-0.8-3.17-1.95-4.54-3.31c-1.34-1.36-2.5-3.06-3.38-5.04c-0.66-1.42-1.03-2.93-1.17-4.48l-0.05-0.43
		c-0.12-1.48-0.2-3.09-0.2-4.76v-17.09H506L506,240.95z"/>
	<path class="st1" d="M300.73,329.59h-5.41l-0.8,5.5h5.41L300.73,329.59L300.73,329.59z M302.2,337.53l-0.74,5.44h-2.64l0.76-5.44
		h-5.39l-0.77,5.44h-2.64l0.77-5.44h-5.41l0.36-2.44h5.39l0.8-5.5h-5.39l0.34-2.47h5.41l0.83-5.59h2.64l-0.85,5.59h5.41l0.85-5.59
		h2.64l-0.85,5.59h5.21l-0.36,2.47h-5.19l-0.8,5.5h5.21l-0.34,2.44H302.2L302.2,337.53z"/>
	<path class="st1" d="M312.98,341.8c-0.19-0.48-0.29-0.99-0.32-1.56c-0.05-0.56-0.06-1.11-0.06-1.65v-17.5h0.23
		c0.05,0,0.12,0,0.22,0c0.08-0.03,0.17-0.03,0.25-0.03c0.66,0,1.28,0.19,1.79,0.53c0.5,0.35,0.77,0.99,0.77,1.92v2.98h5.7v2.7h-5.7
		v9.64c0,2.04,0.82,3.06,2.49,3.06c0.4,0,0.79-0.06,1.14-0.22c0.36-0.12,0.68-0.28,0.97-0.46c0.31-0.19,0.54-0.37,0.71-0.56
		c0.19-0.17,0.28-0.31,0.35-0.37c0.31,0.37,0.56,0.74,0.77,1.08c0.23,0.34,0.34,0.68,0.34,1.02c0,0.22-0.14,0.46-0.36,0.71
		c-0.23,0.28-0.56,0.53-0.97,0.74c-0.39,0.22-0.91,0.4-1.5,0.56c-0.6,0.15-1.25,0.22-1.96,0.22c-1.33,0-2.39-0.25-3.18-0.74
		C313.88,343.36,313.31,342.69,312.98,341.8L312.98,341.8z"/>
	<path class="st1" d="M326.98,326.37c0.6,0,1.13,0.15,1.61,0.43c0.48,0.28,0.76,0.77,0.87,1.42c0.36-0.5,0.9-0.99,1.59-1.47
		c0.73-0.45,1.55-0.69,2.5-0.69c0.28,0,0.57,0.03,0.9,0.09c0.33,0.03,0.62,0.12,0.9,0.25c0.28,0.09,0.53,0.25,0.69,0.46
		c0.17,0.19,0.28,0.45,0.28,0.77c0,0.4-0.11,0.83-0.31,1.3c-0.22,0.46-0.42,0.83-0.62,1.14c-0.32-0.31-0.69-0.53-1.08-0.68
		c-0.37-0.19-0.88-0.26-1.45-0.26c-0.43,0-0.85,0.08-1.25,0.2c-0.39,0.12-0.74,0.34-1.05,0.56c-0.29,0.25-0.54,0.51-0.73,0.8
		c-0.19,0.31-0.26,0.62-0.26,0.96v12.39h-3.26v-17.64h0.26c0.09,0,0.17,0,0.25,0C326.88,326.37,326.95,326.37,326.98,326.37
		L326.98,326.37z"/>
	<path class="st1" d="M346.83,341.85c0.69,0,1.31-0.09,1.9-0.28c0.57-0.19,1.07-0.43,1.47-0.71c0.42-0.25,0.73-0.56,0.96-0.87
		c0.23-0.31,0.34-0.59,0.34-0.85V326.3h0.23c0.06,0,0.12-0.02,0.22-0.02c0.09-0.01,0.17-0.03,0.23-0.03c0.71,0,1.33,0.19,1.84,0.56
		c0.49,0.37,0.74,1.02,0.74,1.95v15.29h-3.26v-1.64c-0.51,0.59-1.22,1.08-2.13,1.54c-0.93,0.43-2.12,0.65-3.57,0.65
		c-1.48,0-2.63-0.22-3.44-0.65c-0.82-0.46-1.44-1.03-1.82-1.73c-0.39-0.7-0.63-1.47-0.71-2.3c-0.06-0.83-0.11-1.62-0.11-2.39V326.3
		h0.22c0.06,0,0.14-0.02,0.22-0.02c0.09-0.01,0.19-0.03,0.26-0.03c0.71,0,1.31,0.19,1.81,0.53c0.51,0.36,0.76,1.02,0.76,1.95v8.81
		c0,0.93,0.08,1.7,0.25,2.26c0.2,0.59,0.45,1.02,0.77,1.31c0.31,0.29,0.69,0.51,1.19,0.6C345.67,341.79,346.21,341.85,346.83,341.85
		L346.83,341.85z"/>
	<path class="st1" d="M363.63,340.54c0,0.37,0.01,0.7,0.05,0.94c0.02,0.28,0.09,0.49,0.2,0.66c0.12,0.17,0.29,0.29,0.54,0.39
		c0.25,0.09,0.59,0.12,1.05,0.12v1.36c-0.23,0.09-0.54,0.15-0.94,0.19c-0.39,0.05-0.77,0.06-1.16,0.06c-0.74,0-1.33-0.09-1.7-0.31
		c-0.4-0.25-0.69-0.54-0.9-0.9c-0.19-0.4-0.29-0.8-0.34-1.27c-0.03-0.46-0.05-0.93-0.05-1.36v-22.89h0.22c0.06,0,0.12,0,0.22,0
		c0.09-0.03,0.17-0.03,0.25-0.03c0.7,0,1.33,0.19,1.82,0.56c0.48,0.36,0.74,1,0.74,1.95V340.54L363.63,340.54z"/>
	<path class="st1" d="M377.04,346.49c-0.29,0.77-0.59,1.54-0.93,2.29c-0.32,0.71-0.74,1.33-1.22,1.89c-0.48,0.53-1.1,0.96-1.78,1.3
		c-0.71,0.31-1.56,0.46-2.55,0.46c-0.97,0-1.78-0.12-2.44-0.4c-0.65-0.28-0.97-0.71-0.97-1.27c0-0.34,0.11-0.71,0.28-1.08
		c0.2-0.37,0.4-0.71,0.6-0.99c0.2,0.19,0.53,0.4,0.94,0.62c0.42,0.25,0.94,0.37,1.59,0.37c0.9,0,1.61-0.34,2.16-0.99
		c0.54-0.65,1.04-1.64,1.48-2.97l0.53-1.7h-1.3l-6.23-17.33c0.59-0.22,1.13-0.31,1.68-0.31c0.68,0,1.22,0.22,1.61,0.65
		c0.43,0.4,0.74,0.9,0.94,1.48l4.22,12.74l4.2-12.4c0.08-0.28,0.17-0.56,0.31-0.84c0.12-0.31,0.31-0.56,0.53-0.82
		c0.2-0.23,0.48-0.45,0.77-0.6c0.31-0.15,0.68-0.22,1.11-0.22c0.51,0,0.99,0.11,1.42,0.34L377.04,346.49L377.04,346.49z"/>
	<path class="st1" d="M396.92,322.51c-0.45-0.53-0.96-0.96-1.58-1.27c-0.63-0.31-1.34-0.46-2.13-0.46c-1.14,0-2.04,0.31-2.69,0.93
		c-0.63,0.62-0.94,1.67-0.94,3.15v2.44h6.42v2.72h-6.42v14.83h-3.26v-19.49c0-2.42,0.57-4.25,1.71-5.47
		c1.16-1.2,2.81-1.82,4.97-1.82c0.8,0,1.53,0.08,2.19,0.25c0.65,0.19,1.21,0.4,1.7,0.65c0.48,0.25,0.83,0.51,1.1,0.8
		c0.23,0.28,0.39,0.56,0.39,0.8c0,0.34-0.11,0.68-0.31,1.02c-0.2,0.34-0.42,0.65-0.65,0.93H396.92L396.92,322.51z"/>
	<path class="st1" d="M399.95,327.18c0.59,0,1.13,0.14,1.58,0.43c0.48,0.28,0.76,0.76,0.88,1.42c0.36-0.51,0.87-1,1.61-1.45
		c0.71-0.46,1.54-0.71,2.47-0.71c0.28,0,0.6,0.03,0.91,0.09c0.32,0.03,0.62,0.12,0.9,0.23c0.29,0.11,0.51,0.26,0.69,0.48
		c0.19,0.19,0.28,0.46,0.28,0.77c0,0.4-0.12,0.83-0.32,1.3c-0.22,0.46-0.4,0.83-0.6,1.14c-0.32-0.31-0.68-0.54-1.08-0.7
		c-0.37-0.17-0.87-0.23-1.45-0.23c-0.43,0-0.85,0.06-1.24,0.19c-0.4,0.15-0.74,0.34-1.05,0.56c-0.32,0.25-0.56,0.53-0.74,0.8
		c-0.17,0.31-0.26,0.62-0.26,0.94v12.4h-3.24v-17.64h0.26c0.08,0,0.15,0,0.23-0.01C399.84,327.18,399.9,327.18,399.95,327.18
		L399.95,327.18z"/>
	<path class="st1" d="M412.7,327.1h0.22c0.06,0,0.12-0.02,0.22-0.02c0.09,0,0.17-0.03,0.25-0.03c0.73,0,1.33,0.19,1.82,0.56
		c0.49,0.36,0.76,1.02,0.76,1.95v11.92c0,0.74,0.09,1.24,0.31,1.54c0.22,0.28,0.71,0.46,1.51,0.46v1.33
		c-0.25,0.08-0.54,0.14-0.93,0.19c-0.4,0.05-0.79,0.06-1.17,0.06c-0.74,0-1.31-0.09-1.71-0.32c-0.39-0.23-0.68-0.53-0.87-0.9
		c-0.2-0.36-0.32-0.79-0.36-1.25c-0.03-0.46-0.05-0.93-0.05-1.36V327.1L412.7,327.1z M416.26,321.52c0,0.59-0.2,1.08-0.59,1.45
		c-0.4,0.37-0.9,0.56-1.48,0.56c-0.59,0-1.08-0.19-1.47-0.56c-0.4-0.37-0.6-0.87-0.6-1.45c0-0.62,0.2-1.13,0.6-1.53
		c0.39-0.39,0.88-0.6,1.47-0.6c0.59,0,1.08,0.22,1.48,0.6C416.06,320.4,416.26,320.91,416.26,321.52L416.26,321.52z"/>
	<path class="st1" d="M433.29,334.28c0-0.68-0.08-1.3-0.2-1.88c-0.14-0.56-0.39-1.07-0.71-1.51c-0.35-0.43-0.79-0.77-1.33-1.02
		c-0.54-0.25-1.22-0.37-2.01-0.37c-1.33,0-2.42,0.43-3.27,1.27c-0.87,0.85-1.33,2.01-1.44,3.52H433.29L433.29,334.28z M430,342.72
		c0.7,0,1.36-0.06,1.92-0.22c0.56-0.15,1.05-0.34,1.44-0.56c0.42-0.2,0.76-0.43,1.03-0.68c0.26-0.25,0.48-0.46,0.66-0.68
		c0.28,0.37,0.54,0.73,0.74,1.14c0.22,0.39,0.34,0.71,0.34,0.93c0,0.31-0.17,0.65-0.51,0.96c-0.32,0.34-0.77,0.62-1.36,0.88
		c-0.57,0.26-1.24,0.48-2.02,0.66c-0.77,0.17-1.62,0.25-2.55,0.25c-1.21,0-2.33-0.15-3.4-0.49c-1.05-0.34-1.98-0.87-2.76-1.64
		c-0.79-0.74-1.44-1.7-1.89-2.92c-0.45-1.22-0.68-2.69-0.68-4.43c0-1.58,0.23-2.93,0.71-4.08c0.46-1.14,1.1-2.08,1.85-2.81
		c0.77-0.74,1.64-1.28,2.63-1.64c0.97-0.34,1.99-0.53,3.04-0.53c1.28,0,2.41,0.22,3.35,0.65c0.93,0.43,1.68,0.99,2.27,1.7
		c0.59,0.71,1.02,1.53,1.31,2.47c0.28,0.93,0.42,1.89,0.42,2.9c0,0.34,0,0.68-0.02,1.05c-0.01,0.36-0.05,0.71-0.11,1.02h-12.1
		c0.06,1.82,0.57,3.31,1.48,4.39C426.71,342.16,428.1,342.72,430,342.72L430,342.72z"/>
	<path class="st1" d="M441.68,327.18c0.59,0,1.11,0.14,1.59,0.43c0.46,0.28,0.76,0.77,0.87,1.48c0.59-0.59,1.37-1.08,2.38-1.55
		c1.02-0.45,2.21-0.68,3.57-0.68c1.33,0,2.41,0.22,3.21,0.62c0.8,0.43,1.41,0.96,1.82,1.64c0.43,0.66,0.71,1.45,0.85,2.32
		c0.12,0.9,0.19,1.82,0.19,2.8v10.61h-3.28v-10.5c0-0.68-0.01-1.33-0.08-1.88c-0.06-0.56-0.22-1.05-0.48-1.44
		c-0.26-0.4-0.63-0.69-1.14-0.94c-0.51-0.22-1.22-0.32-2.12-0.32c-0.73,0-1.39,0.08-1.99,0.23c-0.59,0.12-1.08,0.34-1.48,0.59
		c-0.42,0.25-0.73,0.54-0.96,0.87c-0.23,0.31-0.34,0.65-0.34,0.96v12.45h-3.26v-17.64h0.17c0.06,0,0.14,0,0.23-0.01
		C441.53,327.18,441.6,327.18,441.68,327.18L441.68,327.18z"/>
	<path class="st1" d="M464.39,335.95c0,0.99,0.08,1.88,0.23,2.7c0.15,0.82,0.42,1.53,0.79,2.15c0.4,0.62,0.9,1.08,1.53,1.42
		c0.62,0.34,1.39,0.49,2.32,0.49c0.6,0,1.17-0.06,1.68-0.22c0.54-0.15,0.99-0.34,1.37-0.56c0.39-0.22,0.68-0.5,0.87-0.8
		c0.22-0.28,0.32-0.59,0.32-0.9l0.03-8.74c-0.14-0.12-0.36-0.32-0.59-0.53c-0.25-0.22-0.56-0.43-0.91-0.65
		c-0.39-0.22-0.82-0.37-1.3-0.53c-0.48-0.12-1.02-0.19-1.64-0.19c-1.47,0-2.61,0.53-3.44,1.58
		C464.79,332.24,464.39,333.85,464.39,335.95L464.39,335.95z M476.74,344.85h-3.17v-1.48c-0.2,0.19-0.46,0.42-0.77,0.68
		c-0.32,0.25-0.68,0.46-1.1,0.65c-0.42,0.22-0.91,0.37-1.44,0.53c-0.53,0.12-1.11,0.19-1.74,0.19c-1.02,0-1.96-0.15-2.87-0.46
		c-0.93-0.34-1.73-0.83-2.44-1.58c-0.7-0.71-1.25-1.64-1.65-2.78c-0.42-1.17-0.63-2.59-0.63-4.26c0-1.64,0.22-3.06,0.63-4.25
		c0.42-1.19,0.99-2.18,1.68-2.94c0.69-0.76,1.53-1.33,2.46-1.68c0.94-0.4,1.9-0.59,2.9-0.59c1.14,0,2.12,0.19,2.92,0.59
		c0.8,0.35,1.47,0.77,1.98,1.25v-10.36h0.23c0.05,0,0.11,0,0.2,0c0.09-0.03,0.19-0.03,0.25-0.03c0.73,0,1.31,0.19,1.82,0.53
		c0.51,0.36,0.74,1,0.74,1.95V344.85L476.74,344.85z"/>
	<path class="st1" d="M485.64,341.33c0,0.4,0,0.71,0.03,0.96c0.03,0.28,0.09,0.49,0.22,0.66c0.11,0.17,0.29,0.29,0.53,0.39
		c0.25,0.09,0.6,0.15,1.05,0.15v1.33c-0.22,0.08-0.54,0.14-0.93,0.19c-0.4,0.05-0.79,0.06-1.18,0.06c-0.74,0-1.31-0.09-1.7-0.32
		c-0.4-0.23-0.69-0.53-0.88-0.9c-0.2-0.36-0.31-0.79-0.34-1.25c-0.05-0.46-0.06-0.93-0.06-1.36v-22.89h0.23c0.05,0,0.09,0,0.2,0
		c0.09-0.03,0.17-0.03,0.23-0.03c0.74,0,1.33,0.19,1.84,0.56c0.51,0.37,0.76,1.02,0.76,1.95V341.33L485.64,341.33z"/>
	<path class="st1" d="M499.03,347.29c-0.28,0.8-0.59,1.54-0.91,2.29c-0.34,0.71-0.74,1.33-1.24,1.88c-0.48,0.53-1.1,0.96-1.78,1.28
		c-0.7,0.32-1.55,0.48-2.55,0.48c-0.97,0-1.78-0.12-2.44-0.4c-0.63-0.28-0.99-0.71-0.99-1.27c0-0.37,0.12-0.71,0.31-1.08
		c0.19-0.39,0.4-0.71,0.6-0.99c0.2,0.19,0.51,0.39,0.91,0.62c0.45,0.25,0.97,0.37,1.61,0.37c0.9,0,1.62-0.34,2.16-0.99
		c0.56-0.65,1.05-1.64,1.48-2.98l0.54-1.68h-1.31l-6.19-17.36c0.56-0.19,1.11-0.28,1.68-0.28c0.66,0,1.19,0.22,1.61,0.63
		c0.4,0.42,0.71,0.91,0.91,1.5l4.22,12.76l4.22-12.42c0.08-0.28,0.17-0.56,0.31-0.87c0.11-0.28,0.29-0.53,0.51-0.77
		c0.22-0.26,0.48-0.46,0.79-0.62c0.31-0.16,0.66-0.22,1.11-0.22c0.49,0,0.97,0.12,1.4,0.34L499.03,347.29L499.03,347.29z"/>
</g>
</svg>
