<svg xmlns="http://www.w3.org/2000/svg" width="22.2" height="17.346" viewBox="0 0 22.2 17.346">
  <path id="Icon_awesome-exchange-alt" data-name="Icon awesome-exchange-alt" d="M0,8.793V8.1A1.041,1.041,0,0,1,1.041,7.059H16.65V4.977a1.041,1.041,0,0,1,1.776-.736L21.9,7.71a1.041,1.041,0,0,1,0,1.472l-3.469,3.469a1.041,1.041,0,0,1-1.776-.736V9.834H1.041A1.041,1.041,0,0,1,0,8.793Zm21.159,6.591H5.55V13.3a1.041,1.041,0,0,0-1.776-.736L.3,16.035a1.041,1.041,0,0,0,0,1.472l3.469,3.469A1.041,1.041,0,0,0,5.55,20.24V18.159H21.159A1.041,1.041,0,0,0,22.2,17.118v-.694A1.041,1.041,0,0,0,21.159,15.384Z" transform="translate(0 -3.936)" fill="#bebebe"/>
</svg>
